<svg width="13" height="14" viewBox="0 0 13 14" fill="none" xmlns="http://www.w3.org/2000/svg">
<path d="M11.9162 6.15183H3.6903L7.26679 2.5906C7.47087 2.38677 7.58552 2.11033 7.58552 1.82207C7.58552 1.53381 7.47087 1.25736 7.26679 1.05354C7.0627 0.849708 6.78591 0.735199 6.4973 0.735199C6.20868 0.735199 5.93189 0.849708 5.72781 1.05354L0.308893 6.46574C0.210225 6.56869 0.13288 6.69008 0.0812984 6.82295C-0.0270995 7.08648 -0.0270995 7.38207 0.0812984 7.6456C0.13288 7.77847 0.210225 7.89986 0.308893 8.00281L5.72781 13.415C5.82856 13.5165 5.94843 13.597 6.0805 13.652C6.21257 13.7069 6.35423 13.7352 6.4973 13.7352C6.64037 13.7352 6.78203 13.7069 6.9141 13.652C7.04617 13.597 7.16603 13.5165 7.26679 13.415C7.36837 13.3144 7.44899 13.1947 7.50402 13.0628C7.55904 12.9309 7.58737 12.7894 7.58737 12.6465C7.58737 12.5036 7.55904 12.3621 7.50402 12.2302C7.44899 12.0983 7.36837 11.9786 7.26679 11.8779L3.6903 8.31672H11.9162C12.2037 8.31672 12.4793 8.20267 12.6826 7.99968C12.8858 7.79668 13 7.52136 13 7.23428C13 6.94719 12.8858 6.67187 12.6826 6.46887C12.4793 6.26588 12.2037 6.15183 11.9162 6.15183Z" fill="#EEEEEE"/>
</svg>
